<mxfile host="app.diagrams.net" modified="2022-12-07T14:37:27.276Z" agent="5.0 (Windows NT 10.0; Win64; x64) AppleWebKit/537.36 (KHTML, like Gecko) Chrome/108.0.0.0 Safari/537.36" version="20.6.0" etag="x3ODpG4EgIqX6kqQavzl" type="github">
  <diagram id="P2nA5JHeAsNw1a3HT715" name="第 1 页">
    <mxGraphModel dx="857" dy="522" grid="1" gridSize="10" guides="1" tooltips="1" connect="1" arrows="1" fold="1" page="1" pageScale="1" pageWidth="827" pageHeight="1169" math="0" shadow="0">
      <root>
        <mxCell id="0" />
        <mxCell id="1" parent="0" />
        <mxCell id="BTCpLqu4TTebbasOGRMl-16" value="&lt;font style=&quot;font-size: 18px;&quot;&gt;1&amp;nbsp; &amp;nbsp;3&amp;nbsp; 6&amp;nbsp; &amp;nbsp;9&amp;nbsp; &amp;nbsp; &amp;nbsp;7&amp;nbsp; 5&amp;nbsp; &amp;nbsp;3&amp;nbsp; &amp;nbsp; 2&lt;/font&gt;" style="rounded=1;whiteSpace=wrap;html=1;fillColor=none;" vertex="1" parent="1">
          <mxGeometry x="90" y="250" width="210" height="100" as="geometry" />
        </mxCell>
        <mxCell id="BTCpLqu4TTebbasOGRMl-19" value="" style="ellipse;whiteSpace=wrap;html=1;fontSize=18;fillColor=none;" vertex="1" parent="1">
          <mxGeometry x="200" y="270" width="94" height="60" as="geometry" />
        </mxCell>
        <mxCell id="BTCpLqu4TTebbasOGRMl-20" value="" style="ellipse;whiteSpace=wrap;html=1;fontSize=18;fillColor=none;" vertex="1" parent="1">
          <mxGeometry x="140" y="280" width="60" height="40" as="geometry" />
        </mxCell>
        <mxCell id="BTCpLqu4TTebbasOGRMl-21" value="" style="ellipse;whiteSpace=wrap;html=1;fontSize=18;fillColor=none;" vertex="1" parent="1">
          <mxGeometry x="90" y="285" width="50" height="30" as="geometry" />
        </mxCell>
        <mxCell id="BTCpLqu4TTebbasOGRMl-22" value="" style="ellipse;whiteSpace=wrap;html=1;fontSize=18;fillColor=none;" vertex="1" parent="1">
          <mxGeometry x="90" y="285" width="50" height="30" as="geometry" />
        </mxCell>
      </root>
    </mxGraphModel>
  </diagram>
</mxfile>
